<svg xmlns="http://www.w3.org/2000/svg" width="552" height="104" viewBox="0 0 552 104" role="img" aria-labelledby="title desc">
  <title id="title">Expanded YouTube volume slider, classic appearance</title>
  <desc id="desc">Expanded YouTube replacement volume slider using the classic appearance with a speaker icon in the circular control and a separate volume label.</desc>
  <defs>
    <filter id="drop" x="-6%" y="-30%" width="112%" height="160%">
      <feDropShadow dx="0" dy="2" stdDeviation="5" flood-color="#000" flood-opacity="0.06"/>
    </filter>
    <linearGradient id="thumb" x1="0" x2="1" y1="0" y2="1">
      <stop offset="0" stop-color="#fff"/>
      <stop offset="1" stop-color="#f0f0f0"/>
    </linearGradient>
    <linearGradient id="track" x1="0" x2="1">
      <stop offset="0" stop-color="#cc4444"/>
      <stop offset="0.242" stop-color="#bb3333"/>
      <stop offset="0.255" stop-color="#cc5555"/>
      <stop offset="0.268" stop-color="rgba(255,255,255,0.16)"/>
      <stop offset="1" stop-color="rgba(255,255,255,0.16)"/>
    </linearGradient>
    <clipPath id="pill-clip">
      <rect x="8" y="12" width="536" height="80" rx="40"/>
    </clipPath>
  </defs>

  <g filter="url(#drop)">
    <g clip-path="url(#pill-clip)">
      <rect x="8" y="12" width="536" height="80" rx="40" fill="rgba(42,43,55,0.68)"/>

      <g transform="translate(16 16)">
        <circle cx="36" cy="36" r="29" fill="none" stroke="rgba(255,255,255,0.42)" stroke-width="5" transform="rotate(-90 36 36)"/>
        <circle cx="36" cy="36" r="29" fill="none" stroke="#cc4444" stroke-width="5" stroke-dasharray="25 100" pathLength="100" transform="rotate(-90 36 36)" stroke-linecap="round"/>
        <g transform="translate(17 17) scale(1.6)" fill="rgba(255,255,255,0.94)">
          <path d="M11.60 2.08L11.48 2.14L3.91 6.68C3.02 7.21 2.28 7.97 1.77 8.87C1.26 9.77 1 10.79 1 11.83V12.16L1.01 12.56C1.07 13.52 1.37 14.46 1.87 15.29C2.38 16.12 3.08 16.81 3.91 17.31L11.48 21.85C11.63 21.94 11.80 21.99 11.98 21.99C12.16 22 12.33 21.95 12.49 21.87C12.64 21.78 12.77 21.65 12.86 21.50C12.95 21.35 13 21.17 13 21V3C12.99 2.83 12.95 2.67 12.87 2.52C12.80 2.37 12.68 2.25 12.54 2.16C12.41 2.07 12.25 2.01 12.08 2C11.92 1.98 11.75 2.01 11.60 2.08Z"/>
          <path d="M15.53 7.05C15.35 7.22 15.25 7.45 15.24 7.70C15.23 7.95 15.31 8.19 15.46 8.38L15.53 8.46L15.70 8.64C16.09 9.06 16.39 9.55 16.61 10.08L16.70 10.31C16.90 10.85 17 11.42 17 12L16.99 12.24C16.96 12.73 16.87 13.22 16.70 13.68L16.61 13.91C16.36 14.51 15.99 15.07 15.53 15.53C15.35 15.72 15.25 15.97 15.26 16.23C15.26 16.49 15.37 16.74 15.55 16.92C15.73 17.11 15.98 17.21 16.24 17.22C16.50 17.22 16.76 17.12 16.95 16.95C17.60 16.29 18.11 15.52 18.46 14.67L18.59 14.35C18.82 13.71 18.95 13.03 18.99 12.34L19 12C18.99 11.19 18.86 10.39 18.59 9.64L18.46 9.32C18.15 8.57 17.72 7.89 17.18 7.30L16.95 7.05L16.87 6.98C16.68 6.82 16.43 6.74 16.19 6.75C15.94 6.77 15.71 6.87 15.53 7.05Z"/>
        </g>
      </g>

      <text x="126" y="57" fill="#fff" font-family="YouTube Noto, Roboto, Arial, Helvetica, sans-serif" font-size="18" font-weight="700" text-anchor="middle" text-shadow="0 0 3px rgba(0,0,0,0.75)">25%</text>

      <g transform="translate(174 52)">
        <rect x="0" y="-4.5" width="334" height="9" rx="4.5" fill="url(#track)"/>
        <g opacity="0.55">
          <path d="M16.45 -4.5v9M30.35 -4.5v9M44.25 -4.5v9M58.15 -4.5v9M72.05 -4.5v9M85.95 -4.5v9M99.85 -4.5v9M113.75 -4.5v9M127.65 -4.5v9M141.55 -4.5v9M155.45 -4.5v9M169.35 -4.5v9M183.25 -4.5v9M197.15 -4.5v9M211.05 -4.5v9M224.95 -4.5v9M238.85 -4.5v9M252.75 -4.5v9M266.65 -4.5v9M280.55 -4.5v9M294.45 -4.5v9M308.35 -4.5v9" stroke="rgba(255,255,255,0.25)" stroke-width="1"/>
        </g>
        <circle cx="83.5" cy="0" r="16" fill="url(#thumb)"/>
        <circle cx="83.5" cy="0" r="15.5" fill="none" stroke="rgba(0,0,0,0.12)"/>
      </g>
    </g>
  </g>
</svg>
