<svg xmlns="http://www.w3.org/2000/svg" width="288" height="76" viewBox="0 0 288 76" role="img" aria-labelledby="title desc">
  <title id="title">YouTube controls with Volume Slider Options button</title>
  <desc id="desc">A cropped YouTube controls strip showing the Volume Slider Options button highlighted next to the standard settings gear.</desc>
  <defs>
    <filter id="shadow" x="-8%" y="-28%" width="116%" height="156%">
      <feDropShadow dx="0" dy="8" stdDeviation="14" flood-color="#000" flood-opacity="0.34"/>
    </filter>
    <style>
      .icon{fill:#fff}
      .button{fill:transparent}
      .button-active{fill:rgba(255,255,255,.16)}
    </style>
  </defs>

  <rect x="8.5" y="10.5" width="271" height="55" rx="8" fill="rgba(18,18,18,0.96)" stroke="rgba(255,255,255,0.12)" filter="url(#shadow)"/>
  <rect x="20" y="22" width="248" height="3" rx="1.5" fill="rgba(255,255,255,0.25)"/>
  <rect x="20" y="22" width="82" height="3" rx="1.5" fill="#bb3333"/>

  <g transform="translate(24 27)">
    <rect class="button" width="48" height="40"/>
    <path class="icon" transform="translate(12 8)" d="M21.20 3.01L21 3H3L2.79 3.01C2.30 3.06 1.84 3.29 1.51 3.65C1.18 4.02 .99 4.50 1 5V19L1.01 19.20C1.05 19.66 1.26 20.08 1.58 20.41C1.91 20.73 2.33 20.94 2.79 20.99L3 21H21L21.20 20.98C21.66 20.94 22.08 20.73 22.41 20.41C22.73 20.08 22.94 19.66 22.99 19.20L23 19V5C23.00 4.50 22.81 4.02 22.48 3.65C22.15 3.29 21.69 3.06 21.20 3.01ZM3 19V5H21V19H3ZM8 11H6C5.73 11 5.48 11.10 5.29 11.29C5.10 11.48 5 11.73 5 12C5 12.26 5.10 12.51 5.29 12.70C5.48 12.89 5.73 13 6 13H8C8.26 13 8.51 12.89 8.70 12.70C8.89 12.51 9 12.26 9 12C9 11.73 8.89 11.48 8.70 11.29C8.51 11.10 8.26 11 8 11ZM18 11H12C11.73 11 11.48 11.10 11.29 11.29C11.10 11.48 11 11.73 11 12C11 12.26 11.10 12.51 11.29 12.70C11.48 12.89 11.73 13 12 13H18C18.26 13 18.51 12.89 18.70 12.70C18.89 12.51 19 12.26 19 12C19 11.73 18.89 11.48 18.70 11.29C18.51 11.10 18.26 11 18 11ZM18 15H16C15.73 15 15.48 15.10 15.29 15.29C15.10 15.48 15 15.73 15 16C15 16.26 15.10 16.51 15.29 16.70C15.48 16.89 15.73 17 16 17H18C18.26 17 18.51 16.89 18.70 16.70C18.89 16.51 19 16.26 19 16C19 15.73 18.89 15.48 18.70 15.29C18.51 15.10 18.26 15 18 15ZM12 15H6C5.73 15 5.48 15.10 5.29 15.29C5.10 15.48 5 15.73 5 16C5 16.26 5.10 16.51 5.29 16.70C5.48 16.89 5.73 17 6 17H12C12.26 17 12.51 16.89 12.70 16.70C12.89 16.51 13 16.26 13 16C13 15.73 12.89 15.48 12.70 15.29C12.51 15.10 12.26 15 12 15Z"/>
  </g>

  <g transform="translate(72 27)">
    <rect class="button-active" width="48" height="40" rx="3"/>
    <path class="icon" transform="translate(12 8)" d="M3 17v2h6v-2H3zM3 5v2h10V5H3zm10 16v-2h8v-2h-8v-2h-2v6h2zM7 9v2H3v2h4v2h2V9H7zm14 4v-2H11v2h10zm-6-4h2V7h4V5h-4V3h-2v6h2z"/>
  </g>

  <g transform="translate(120 27)">
    <rect class="button" width="48" height="40"/>
    <path class="icon" transform="translate(12 8)" d="M12.84 1H11.15C10.72 .99 10.30 1.14 9.95 1.40C9.60 1.66 9.35 2.02 9.23 2.44L9.19 2.61C9.11 3.00 8.96 3.38 8.73 3.71C8.51 4.04 8.22 4.33 7.89 4.55L7.75 4.64C7.37 4.85 6.96 4.98 6.53 5.02C6.11 5.06 5.68 5.01 5.27 4.87C4.86 4.73 4.42 4.73 4.00 4.86C3.59 5.00 3.23 5.26 2.99 5.62L2.89 5.77L2.05 7.23C1.82 7.63 1.73 8.10 1.81 8.55C1.88 9.01 2.12 9.43 2.47 9.73L2.58 9.84C3.15 10.39 3.50 11.15 3.50 12L3.49 12.16C3.47 12.56 3.37 12.95 3.19 13.31C3.01 13.67 2.77 13.99 2.47 14.26C2.12 14.56 1.88 14.98 1.81 15.43C1.73 15.89 1.82 16.36 2.05 16.76L2.89 18.22L2.99 18.37C3.24 18.73 3.59 18.99 4.01 19.13C4.42 19.26 4.86 19.26 5.27 19.12L5.42 19.07C5.81 18.96 6.21 18.93 6.61 18.98C7.01 19.03 7.40 19.15 7.75 19.36L7.89 19.44C8.22 19.66 8.51 19.95 8.73 20.28C8.96 20.61 9.11 20.99 9.19 21.38C9.28 21.84 9.52 22.24 9.88 22.54C10.24 22.83 10.69 23.00 11.15 23H12.84C13.30 23.00 13.75 22.83 14.11 22.54C14.47 22.24 14.71 21.84 14.80 21.38C14.89 20.96 15.06 20.56 15.31 20.21C15.55 19.86 15.88 19.57 16.25 19.36L16.39 19.28C16.75 19.10 17.14 18.99 17.54 18.96C17.94 18.94 18.34 18.99 18.72 19.12L18.89 19.17C19.31 19.27 19.75 19.24 20.15 19.07C20.55 18.90 20.88 18.60 21.10 18.23L21.95 16.76C22.18 16.36 22.26 15.89 22.19 15.43C22.11 14.98 21.88 14.56 21.53 14.26C21.23 13.99 20.98 13.67 20.80 13.31C20.63 12.95 20.52 12.56 20.50 12.16L20.50 12C20.50 11.57 20.59 11.14 20.77 10.75C20.94 10.36 21.20 10.01 21.53 9.73C21.88 9.43 22.11 9.01 22.19 8.55C22.26 8.10 22.18 7.63 21.95 7.23L21.10 5.76C20.88 5.39 20.55 5.09 20.15 4.92C19.76 4.75 19.31 4.72 18.89 4.82L18.72 4.87C18.34 5.00 17.94 5.05 17.54 5.03C17.14 5.00 16.75 4.89 16.4 4.71L16.25 4.63C15.88 4.42 15.56 4.13 15.31 3.78C15.06 3.43 14.89 3.03 14.80 2.61C14.71 2.15 14.47 1.74 14.11 1.45C13.75 1.16 13.30 .99 12.84 1ZM11.15 3H12.84C12.98 3.70 13.26 4.36 13.68 4.94C14.09 5.52 14.63 6.01 15.25 6.37C15.87 6.72 16.55 6.94 17.26 7.01C17.97 7.08 18.69 6.99 19.37 6.76L20.21 8.23C19.67 8.69 19.24 9.27 18.94 9.92C18.65 10.57 18.50 11.28 18.5 12C18.50 12.71 18.65 13.42 18.95 14.07C19.24 14.72 19.67 15.29 20.21 15.76L19.37 17.23C18.69 16.99 17.97 16.91 17.26 16.98C16.55 17.05 15.86 17.27 15.25 17.63C14.63 17.98 14.09 18.47 13.68 19.05C13.26 19.63 12.98 20.29 12.84 21H11.15C11.01 20.29 10.73 19.63 10.31 19.05C9.90 18.47 9.36 17.98 8.75 17.62C8.13 17.27 7.44 17.05 6.73 16.98C6.02 16.91 5.30 16.99 4.62 17.23L3.78 15.76C4.32 15.29 4.75 14.71 5.05 14.06C5.34 13.41 5.49 12.71 5.5 12C5.50 11.28 5.34 10.57 5.05 9.92C4.75 9.27 4.32 8.69 3.78 8.23L4.62 6.76C5.30 7.00 6.02 7.08 6.73 7.01C7.44 6.94 8.13 6.72 8.75 6.37C9.36 6.01 9.90 5.52 10.31 4.94C10.73 4.36 11.01 3.70 11.15 3ZM12.00 8C10.94 8 9.92 8.42 9.17 9.17C8.42 9.92 8.00 10.93 8.00 12C8.00 13.06 8.42 14.07 9.17 14.82C9.92 15.57 10.94 16 12.00 16C13.06 16 14.08 15.57 14.83 14.82C15.58 14.07 16.00 13.06 16.00 12C16.00 10.93 15.58 9.92 14.83 9.17C14.08 8.42 13.06 8 12.00 8ZM12.00 10H12L12.20 10.01C12.69 10.06 13.15 10.29 13.48 10.65C13.81 11.02 14.00 11.50 14 12L13.99 12.20C13.95 12.58 13.80 12.95 13.55 13.25C13.31 13.55 12.98 13.78 12.62 13.90C12.25 14.02 11.85 14.03 11.48 13.93C11.11 13.83 10.77 13.62 10.51 13.34C10.25 13.05 10.08 12.69 10.02 12.31C9.96 11.93 10.01 11.54 10.17 11.18C10.32 10.83 10.58 10.53 10.91 10.32C11.23 10.11 11.61 10.00 12 10"/>
  </g>

  <g transform="translate(168 27)">
    <rect class="button" width="48" height="40"/>
    <path class="icon" transform="translate(12 8)" d="M21.20 3.01L21 3H3L2.79 3.01C2.30 3.06 1.84 3.29 1.51 3.65C1.18 4.02 .99 4.50 1 5V19L1.01 19.20C1.05 19.66 1.26 20.08 1.58 20.41C1.91 20.73 2.33 20.94 2.79 20.99L3 21H21L21.20 20.98C21.66 20.94 22.08 20.73 22.41 20.41C22.73 20.08 22.94 19.66 22.99 19.20L23 19V5C23.00 4.50 22.81 4.02 22.48 3.65C22.15 3.29 21.69 3.06 21.20 3.01ZM3 15V5H21V15H3ZM16.87 6.72H16.86L16.79 6.79L13.58 10L16.79 13.20C16.88 13.30 16.99 13.37 17.11 13.43C17.23 13.48 17.37 13.51 17.50 13.51C17.63 13.51 17.76 13.48 17.89 13.43C18.01 13.38 18.12 13.31 18.21 13.21C18.31 13.12 18.38 13.01 18.43 12.89C18.48 12.76 18.51 12.63 18.51 12.50C18.51 12.37 18.48 12.23 18.43 12.11C18.37 11.99 18.30 11.88 18.20 11.79L16.41 10L18.20 8.20L18.27 8.13C18.42 7.93 18.50 7.69 18.49 7.45C18.47 7.20 18.37 6.97 18.20 6.79C18.02 6.62 17.79 6.52 17.55 6.50C17.30 6.49 17.06 6.57 16.87 6.72ZM5.79 6.79C5.60 6.98 5.50 7.23 5.50 7.5C5.50 7.76 5.60 8.01 5.79 8.20L7.58 10L5.79 11.79L5.72 11.86C5.57 12.06 5.49 12.30 5.50 12.54C5.51 12.79 5.62 13.02 5.79 13.20C5.97 13.37 6.20 13.48 6.45 13.49C6.69 13.50 6.93 13.42 7.13 13.27L7.20 13.20L10.41 10L7.20 6.79C7.01 6.60 6.76 6.50 6.5 6.50C6.23 6.50 5.98 6.60 5.79 6.79ZM3 19V17H21V19H3Z"/>
  </g>

  <g transform="translate(216 27)">
    <rect class="button" width="48" height="40"/>
    <path class="icon" transform="translate(12 8)" d="M10 3H3V10C3 10.26 3.10 10.51 3.29 10.70C3.48 10.89 3.73 11 4 11C4.26 11 4.51 10.89 4.70 10.70C4.89 10.51 5 10.26 5 10V6.41L9.29 10.70L9.36 10.77C9.56 10.92 9.80 11.00 10.04 10.99C10.29 10.98 10.52 10.87 10.70 10.70C10.87 10.52 10.98 10.29 10.99 10.04C11.00 9.80 10.92 9.56 10.77 9.36L10.70 9.29L6.41 5H10C10.26 5 10.51 4.89 10.70 4.70C10.89 4.51 11 4.26 11 4C11 3.73 10.89 3.48 10.70 3.29C10.51 3.10 10.26 3 10 3ZM20 13C19.73 13 19.48 13.10 19.29 13.29C19.10 13.48 19 13.73 19 14V17.58L14.70 13.29L14.63 13.22C14.43 13.07 14.19 12.99 13.95 13.00C13.70 13.01 13.47 13.12 13.29 13.29C13.12 13.47 13.01 13.70 13.00 13.95C12.99 14.19 13.07 14.43 13.22 14.63L13.29 14.70L17.58 19H14C13.73 19 13.48 19.10 13.29 19.29C13.10 19.48 13 19.73 13 20C13 20.26 13.10 20.51 13.29 20.70C13.48 20.89 13.73 21 14 21H21V14C21 13.73 20.89 13.48 20.70 13.29C20.51 13.10 20.26 13 20 13Z"/>
  </g>
</svg>
